# xmcd
#
# Track frame offsets:
#	150
#	74334
#	97176
#	200027
#	226638
#	277418
#	324963
#
# Disc length: 4711 seconds
#
# Revision: 0
# Processed by: cddbd v1.5.2PL0 Copyright (c) Steve Scherf et al.
# Submitted via: audiograbber 1.83.01
#
DISCID=67126507
DTITLE=Grateful Dead - 93-12-13 San Diego Sports Arena, San Diego CA
DYEAR=1900
DGENRE=
TTITLE0=Eyes Of The World
TTITLE1=Drums
TTITLE2=Space
TTITLE3=The Last Time
TTITLE4=Days Between
TTITLE5=Throwing Stones
TTITLE6=Liberty
EXTD=
EXTT0=
EXTT1=
EXTT2=
EXTT3=
EXTT4=
EXTT5=
EXTT6=
PLAYORDER=
